HIERARCHY
ROOT Hips
{
	OFFSET 0.000000 0.000000 0.000000
	CHANNELS 6 Xposition Yposition Zposition Zrotation Yrotation Xrotation 
	JOINT LowerBack
	{
		OFFSET 0.000000 0.000000 0.000000
		CHANNELS 3 Zrotation Yrotation Xrotation
		JOINT Spine
		{
			OFFSET 0.028270 2.035590 -0.193380
			CHANNELS 3 Zrotation Yrotation Xrotation
			JOINT Spine1
			{
				OFFSET 0.056720 2.048850 -0.042750
				CHANNELS 3 Zrotation Yrotation Xrotation
				JOINT Neck
				{
					OFFSET 0.000000 0.000000 0.000000
					CHANNELS 3 Zrotation Yrotation Xrotation
					JOINT Neck1
					{
						OFFSET -0.054170 1.746240 0.172020
						CHANNELS 3 Zrotation Yrotation Xrotation
						JOINT Head
						{
							OFFSET 0.104070 1.761360 -0.123970
							CHANNELS 3 Zrotation Yrotation Xrotation
							End Site
							{
								OFFSET 0.000000 0.000000 0.000000
							}
						}
					}
				}
				JOINT LeftShoulder
				{
					OFFSET 0.000000 0.000000 0.000000
					CHANNELS 3 Zrotation Yrotation Xrotation
					JOINT LeftArm
					{
						OFFSET 3.362410 1.200890 -0.311210
						CHANNELS 3 Zrotation Yrotation Xrotation
						JOINT LeftForeArm
						{
							OFFSET 4.983000 -0.000000 -0.000000
							CHANNELS 3 Zrotation Yrotation Xrotation
							JOINT LeftHand
							{
								OFFSET 3.483560 -0.000000 -0.000000
								CHANNELS 3 Zrotation Yrotation Xrotation
								JOINT LeftFingerBase
								{
									OFFSET 0.000000 0.000000 0.000000
									CHANNELS 3 Zrotation Yrotation Xrotation
									JOINT LeftHandIndex1
									{
										OFFSET 0.715260 -0.000000 -0.000000
										CHANNELS 3 Zrotation Yrotation Xrotation
										End Site
										{
											OFFSET 0.000000 0.000000 0.000000
										}
									}
								}
								JOINT LThumb
								{
									OFFSET 0.000000 0.000000 0.000000
									CHANNELS 3 Zrotation Yrotation Xrotation
									End Site
									{
										OFFSET 0.000000 0.000000 0.000000
									}
								}
							}
						}
					}
				}
				JOINT RightShoulder
				{
					OFFSET 0.000000 0.000000 0.000000
					CHANNELS 3 Zrotation Yrotation Xrotation
					JOINT RightArm
					{
						OFFSET -3.136600 1.374050 -0.404650
						CHANNELS 3 Zrotation Yrotation Xrotation
						JOINT RightForeArm
						{
							OFFSET -5.241900 -0.000000 -0.000000
							CHANNELS 3 Zrotation Yrotation Xrotation
							JOINT RightHand
							{
								OFFSET -3.444170 -0.000000 -0.000000
								CHANNELS 3 Zrotation Yrotation Xrotation
								JOINT RightFingerBase
								{
									OFFSET 0.000000 0.000000 0.000000
									CHANNELS 3 Zrotation Yrotation Xrotation
									JOINT RightHandIndex1
									{
										OFFSET -0.622530 -0.000000 -0.000000
										CHANNELS 3 Zrotation Yrotation Xrotation
										End Site
										{
											OFFSET 0.000000 0.000000 0.000000
										}
									}
								}
								JOINT RThumb
								{
									OFFSET 0.000000 0.000000 0.000000
									CHANNELS 3 Zrotation Yrotation Xrotation
									End Site
									{
										OFFSET 0.000000 0.000000 0.000000
									}
								}
							}
						}
					}
				}
			}
		}
	}
}
}
MOTION
Frames: 18
Frame Time: 0.008333
0.787896 17.524877 2.923592 -179.397073 -84.196019 -159.581262 -0.813659 -2.809299 0.578932 -1.005555 -2.812786 -2.808552 -7.552121 -2.915715 0.504134 11.077974 -2.038778 -4.213749 -3.807720 -0.304620 0.774290 0.000000 0.000000 0.000000 -4.134971 0.614687 3.574684 -53.193520 -22.282962 18.067379 -3.643247 -47.410276 0.035051 -10.409831 -1.151842 0.121072 -0.069955 0.170217 -0.000000 0.000000 0.000000 0.000000 0.000000 0.000000 0.000000 17.509930 -1.006174 1.933384 60.372932 3.654607 15.712989 3.628255 28.897826 0.017588 9.385694 10.889895 0.899302 0.034303 -0.064476 0.000000 0.000000 0.000000 0.000000 0.000000 0.000000 0.000000 
0.528288 17.474688 2.890091 174.962650 -85.171147 -153.984296 -0.858651 -3.188448 0.531540 -1.022107 -3.195585 -2.775803 -7.626161 -3.286906 0.586401 11.319960 -2.690920 -4.282201 -3.814229 -0.304929 0.760768 0.000000 0.000000 0.000000 -3.340693 0.014979 3.597098 -51.692237 -23.753907 18.595215 -3.426956 -50.000805 0.037945 -10.522875 -1.135189 0.122484 -0.057433 0.185595 -0.000000 0.000000 0.000000 0.000000 0.000000 0.000000 0.000000 17.848467 -1.877733 1.921719 60.369316 2.297347 15.462427 3.645313 28.667214 0.016932 9.324646 10.906176 0.893987 0.036591 -0.058161 0.000000 0.000000 0.000000 0.000000 0.000000 0.000000 0.000000 
0.269206 17.415282 2.852250 166.139956 -86.172587 -145.196644 -0.917283 -3.573644 0.485302 -1.046748 -3.584747 -2.742132 -7.694777 -3.663446 0.668247 11.561275 -3.376506 -4.357287 -3.818166 -0.305123 0.745327 0.000000 0.000000 0.000000 -2.477649 -0.623971 3.604622 -50.070153 -25.208142 18.909691 -3.190651 -52.489723 0.040956 -10.641445 -1.102714 0.122481 -0.042831 0.201601 -0.000000 0.000000 0.000000 0.000000 0.000000 0.000000 0.000000 18.179778 -2.789255 1.903231 60.368846 0.888881 14.963826 3.656277 28.551472 0.016327 9.242631 10.911997 0.885776 0.038715 -0.052412 0.000000 0.000000 0.000000 0.000000 0.000000 0.000000 0.000000 
0.010406 17.347314 2.810969 153.137133 -87.091207 -132.224266 -0.915135 -3.935044 0.451117 -1.061416 -3.953584 -2.703933 -7.757520 -4.018787 0.759602 11.793856 -4.145410 -4.459724 -3.816864 -0.304758 0.722465 0.000000 0.000000 0.000000 -1.559366 -1.267836 3.581491 -48.352816 -26.651572 18.994650 -2.936155 -54.856884 0.044091 -10.767273 -1.063085 0.121957 -0.025787 0.218166 -0.000000 0.000000 0.000000 0.000000 0.000000 0.000000 0.000000 18.491398 -3.780068 1.882739 60.363393 -0.471063 14.315477 3.665149 28.493955 0.015898 9.114739 10.930490 0.874268 0.041183 -0.047388 0.000000 0.000000 0.000000 0.000000 0.000000 0.000000 0.000000 
-0.248169 17.271497 2.767206 136.169036 -87.707382 -115.295667 -0.879086 -4.220163 0.434441 -1.064435 -4.246620 -2.663272 -7.811832 -4.299370 0.850325 12.010353 -4.964131 -4.584324 -3.808678 -0.303704 0.693642 0.000000 0.000000 0.000000 -0.597605 -1.883805 3.519765 -46.561392 -28.054131 18.839019 -2.667517 -57.096403 0.047317 -10.900300 -1.021246 0.121209 -0.006238 0.235046 -0.000000 0.000000 0.000000 0.000000 0.000000 0.000000 0.000000 18.765216 -4.785671 1.866975 60.365221 -1.802614 13.468393 3.675175 28.493432 0.015689 8.980509 10.943861 0.861765 0.043934 -0.043284 0.000000 0.000000 0.000000 0.000000 0.000000 0.000000 0.000000 
-0.507162 17.188584 2.721998 118.163676 -87.865639 -97.349608 -0.953755 -4.424115 0.445538 -1.081591 -4.450301 -2.614766 -7.846282 -4.491589 0.946672 12.204475 -5.868432 -4.743470 -3.790626 -0.301608 0.655282 0.000000 0.000000 0.000000 0.396558 -2.437310 3.414095 -44.710149 -29.415093 18.448808 -2.391799 -59.196588 0.050584 -11.041335 -0.981822 0.120734 0.015701 0.251916 -0.000000 0.000000 0.000000 0.000000 0.000000 0.000000 0.000000 18.991216 -5.842430 1.855719 60.366148 -3.023810 12.533260 3.685992 28.506821 0.015749 8.821731 10.970822 0.847970 0.047165 -0.040186 0.000000 0.000000 0.000000 0.000000 0.000000 0.000000 0.000000 
-0.766897 17.099427 2.676186 102.871927 -87.626647 -82.159192 -1.189808 -4.596118 0.500894 -1.127142 -4.612049 -2.556420 -7.853245 -4.642348 1.038377 12.369350 -6.814188 -4.920991 -3.762859 -0.298636 0.611634 0.000000 0.000000 0.000000 1.413926 -2.948376 3.275821 -42.816883 -30.702157 17.838137 -2.118283 -61.153124 0.053940 -11.191574 -0.945727 0.120635 0.039536 0.268860 -0.000000 0.000000 0.000000 0.000000 0.000000 0.000000 0.000000 19.158418 -6.928106 1.845494 60.379124 -4.186070 11.469984 3.696939 28.547876 0.015943 8.680581 10.992048 0.835378 0.050436 -0.037721 0.000000 0.000000 0.000000 0.000000 0.000000 0.000000 0.000000 
-1.028293 17.004943 2.630513 91.622056 -87.137174 -71.067648 -1.520769 -4.769534 0.616673 -1.191188 -4.769887 -2.486490 -7.833168 -4.789298 1.120590 12.500565 -7.766354 -5.105876 -3.726329 -0.294929 0.565620 0.000000 0.000000 0.000000 2.438539 -3.423817 3.113295 -40.901524 -31.895290 17.033669 -1.854566 -62.964302 0.057422 -11.351302 -0.913896 0.121018 0.064779 0.285944 -0.000000 0.000000 0.000000 0.000000 0.000000 0.000000 0.000000 19.261804 -8.021847 1.834774 60.406337 -5.323788 10.267278 3.708305 28.625747 0.016168 8.587811 10.993847 0.826085 0.053489 -0.035587 0.000000 0.000000 0.000000 0.000000 0.000000 0.000000 0.000000 
-1.295063 16.910076 2.586355 72.258000 -86.199172 -51.846568 -1.794106 -5.154613 0.730312 -1.219992 -5.146131 -2.415825 -7.788878 -5.161794 1.203937 12.619568 -8.708860 -5.290932 -3.696875 -0.291782 0.523690 0.000000 0.000000 0.000000 3.388363 -3.986325 2.965277 -38.959194 -32.985029 16.092206 -1.620084 -64.635071 0.061708 -11.522278 -0.886989 0.122315 0.090562 0.306106 -0.000000 0.000000 0.000000 0.000000 0.000000 0.000000 0.000000 19.382731 -9.239310 1.789370 60.362857 -6.487835 8.940739 3.710455 28.756119 0.016058 8.557756 10.968664 0.820881 0.055418 -0.032646 0.000000 0.000000 0.000000 0.000000 0.000000 0.000000 0.000000 
-1.562085 16.808707 2.542045 68.354214 -85.440714 -48.254099 -2.130632 -5.352369 0.991396 -1.284979 -5.329321 -2.319222 -7.722750 -5.334607 1.272286 12.683885 -9.655952 -5.486429 -3.645722 -0.286749 0.474114 0.000000 0.000000 0.000000 4.386159 -4.357877 2.760159 -37.071552 -33.948663 15.004440 -1.390092 -66.175143 0.065397 -11.701935 -0.866671 0.123963 0.117471 0.322984 0.000000 0.000000 0.000000 0.000000 0.000000 0.000000 0.000000 19.368858 -10.341028 1.775456 60.384975 -7.529689 7.616551 3.723450 28.856842 0.016288 8.551319 10.946137 0.818186 0.058100 -0.030838 0.000000 0.000000 0.000000 0.000000 0.000000 0.000000 0.000000 
-1.833628 16.705875 2.499111 65.346689 -84.717610 -45.615493 -2.396978 -5.544573 1.293965 -1.334201 -5.512051 -2.217604 -7.641547 -5.508196 1.334918 12.714294 -10.570609 -5.678735 -3.589934 -0.281315 0.425544 0.000000 0.000000 0.000000 5.340832 -4.651818 2.540535 -35.232880 -34.770438 13.840362 -1.182035 -67.605564 0.069091 -11.890330 -0.853940 0.126499 0.144435 0.339279 0.000000 0.000000 0.000000 0.000000 0.000000 0.000000 0.000000 19.301892 -11.405341 1.760502 60.389599 -8.531227 6.259544 3.739286 28.955847 0.016525 8.589275 10.911163 0.818790 0.060674 -0.029174 0.000000 0.000000 0.000000 0.000000 0.000000 0.000000 0.000000 
-2.110761 16.603145 2.457490 62.837139 -84.058312 -43.504103 -2.574293 -5.728574 1.603498 -1.363018 -5.692718 -2.117498 -7.550180 -5.681298 1.397903 12.714765 -11.451309 -5.867402 -3.531812 -0.275674 0.378400 0.000000 0.000000 0.000000 6.236812 -4.854082 2.311766 -33.465104 -35.445096 12.649915 -0.997766 -68.945171 0.072718 -12.085892 -0.849512 0.129825 0.170929 0.354675 0.000000 0.000000 0.000000 0.000000 0.000000 0.000000 0.000000 19.195210 -12.430149 1.741855 60.361909 -9.471609 4.912002 3.758620 29.029856 0.016788 8.651342 10.875345 0.821694 0.063260 -0.027652 0.000000 0.000000 0.000000 0.000000 0.000000 0.000000 0.000000 
-2.394294 16.502116 2.416893 60.638662 -83.483114 -41.698481 -2.651719 -5.901533 1.878558 -1.369557 -5.868714 -2.029032 -7.457028 -5.851878 1.457484 12.690384 -12.252434 -6.038570 -3.476735 -0.270409 0.336690 0.000000 0.000000 0.000000 7.059957 -4.970389 2.085802 -31.785373 -35.951335 11.482752 -0.838249 -70.222967 0.076207 -12.284939 -0.852054 0.133845 0.196236 0.368904 -0.000000 0.000000 0.000000 0.000000 0.000000 0.000000 0.000000 19.069270 -13.364588 1.717608 60.304080 -10.401827 3.512340 3.782376 29.095695 0.017035 8.757179 10.824032 0.827596 0.065714 -0.026223 0.000000 0.000000 0.000000 0.000000 0.000000 0.000000 0.000000 
-2.685181 16.404138 2.376898 58.661436 -83.002740 -40.067595 -2.626535 -6.062743 2.077774 -1.352884 -6.038710 -1.958918 -7.366938 -6.018503 1.521755 12.646018 -12.981274 -6.195170 -3.426998 -0.265703 0.299881 0.000000 0.000000 0.000000 7.798465 -4.992332 1.868245 -30.210976 -36.294389 10.385853 -0.702731 -71.460137 0.079478 -12.483515 -0.860315 0.138363 0.219911 0.381715 0.000000 0.000000 0.000000 0.000000 0.000000 0.000000 0.000000 18.939423 -14.217144 1.684582 60.205255 -11.292051 2.096276 3.810896 29.130109 0.017302 8.879342 10.772078 0.834898 0.068195 -0.024934 0.000000 0.000000 0.000000 0.000000 0.000000 0.000000 0.000000 
-2.983953 16.310457 2.337052 56.857424 -82.621203 -38.530223 -2.500308 -6.211572 2.164216 -1.313647 -6.201227 -1.915019 -7.286408 -6.179738 1.589665 12.585542 -13.610607 -6.329954 -3.386830 -0.261997 0.270149 0.000000 0.000000 0.000000 8.442519 -4.927911 1.668847 -28.753603 -36.466086 9.400445 -0.589854 -72.683627 0.082469 -12.677136 -0.870880 0.142981 0.241442 0.392921 0.000000 0.000000 0.000000 0.000000 0.000000 0.000000 0.000000 18.822406 -14.957771 1.640948 60.070103 -12.171872 0.616950 3.844610 29.146035 0.017571 9.026168 10.709377 0.843598 0.070637 -0.023787 0.000000 0.000000 0.000000 0.000000 0.000000 0.000000 0.000000 
-3.290818 16.221930 2.297330 55.200527 -82.344741 -37.041501 -2.270876 -6.347185 2.124478 -1.250412 -6.354766 -1.896232 -7.214723 -6.333345 1.676249 12.509026 -14.196188 -6.461625 -3.353431 -0.258891 0.242409 0.000000 0.000000 0.000000 8.976070 -4.756676 1.486954 -27.416398 -36.501543 8.552953 -0.496942 -73.903282 0.085122 -12.861889 -0.880269 0.147302 0.260849 0.402399 0.000000 0.000000 0.000000 0.000000 0.000000 0.000000 0.000000 18.714387 -15.647204 1.585535 59.880473 -12.935780 -0.806263 3.883306 29.083853 0.017970 9.128321 10.681863 0.850701 0.073424 -0.022951 0.000000 0.000000 0.000000 0.000000 0.000000 0.000000 0.000000 
-3.605842 16.139365 2.257504 53.616130 -82.173915 -35.507728 -1.934231 -6.469136 1.937212 -1.163264 -6.499073 -1.909167 -7.159109 -6.479203 1.772850 12.418565 -14.690685 -6.577939 -3.331803 -0.256932 0.220075 0.000000 0.000000 0.000000 9.388572 -4.499615 1.334163 -26.196310 -36.385713 7.867368 -0.422173 -75.144783 0.087419 -13.033422 -0.884606 0.150631 0.277682 0.410123 0.000000 0.000000 0.000000 0.000000 0.000000 0.000000 0.000000 18.629780 -16.233026 1.518859 59.650702 -13.651168 -2.271420 3.927130 28.985901 0.018429 9.220384 10.658474 0.857204 0.076328 -0.022388 0.000000 0.000000 0.000000 0.000000 0.000000 0.000000 0.000000 
-3.928679 16.063222 2.217950 52.009440 -82.117015 -33.833242 -1.475598 -6.574975 1.605894 -1.049491 -6.632854 -1.953473 -7.122383 -6.615735 1.879177 12.312364 -15.097735 -6.682544 -3.322328 -0.256124 0.202002 0.000000 0.000000 0.000000 9.665493 -4.163281 1.215168 -25.084314 -36.123485 7.351820 -0.363191 -76.424295 0.089353 -13.189802 -0.880471 0.152667 0.291881 0.416106 0.000000 0.000000 0.000000 0.000000 0.000000 0.000000 0.000000 18.566518 -16.717312 1.443560 59.382465 -14.300373 -3.771235 3.975883 28.849522 0.018971 9.292100 10.642052 0.862307 0.079392 -0.022157 0.000000 0.000000 0.000000 0.000000 0.000000 0.000000 0.000000 
